<svg width="40" height="40" viewBox="0 0 40 40" fill="none" xmlns="http://www.w3.org/2000/svg">
<mask id="path-1-outside-1_51_105" maskUnits="userSpaceOnUse" x="3.86401" y="1.52246" width="32" height="28" fill="black">
<rect fill="white" x="3.86401" y="1.52246" width="32" height="28"/>
<path d="M35.1355 28.7383H4.86401L19.9998 2.52246L35.1355 28.7383ZM17.4314 10.7207L17.3796 10.8115L11.0154 21.835L10.9636 21.9248L11.0154 22.0146L13.4802 26.2832L13.532 26.374H26.4695L26.5212 26.2832L28.9851 22.0146L29.0369 21.9248L28.9851 21.835L22.6218 10.8115L22.5701 10.7207H17.4314Z"/>
</mask>
<path d="M35.1355 28.7383H4.86401L19.9998 2.52246L35.1355 28.7383ZM17.4314 10.7207L17.3796 10.8115L11.0154 21.835L10.9636 21.9248L11.0154 22.0146L13.4802 26.2832L13.532 26.374H26.4695L26.5212 26.2832L28.9851 22.0146L29.0369 21.9248L28.9851 21.835L22.6218 10.8115L22.5701 10.7207H17.4314Z" fill="#25FF8B"/>
<path d="M35.1355 28.7383V28.9185H35.4476L35.2915 28.6482L35.1355 28.7383ZM4.86401 28.7383L4.70797 28.6482L4.55193 28.9185H4.86401V28.7383ZM19.9998 2.52246L20.1558 2.43237L19.9998 2.1621L19.8437 2.43237L19.9998 2.52246ZM17.4314 10.7207V10.5405H17.3267L17.2749 10.6315L17.4314 10.7207ZM17.3796 10.8115L17.5357 10.9016L17.5362 10.9007L17.3796 10.8115ZM11.0154 21.835L10.8593 21.7449L10.8593 21.745L11.0154 21.835ZM10.9636 21.9248L10.8075 21.8349L10.7557 21.9248L10.8075 22.0147L10.9636 21.9248ZM11.0154 22.0146L10.8593 22.1046L10.8593 22.1047L11.0154 22.0146ZM13.4802 26.2832L13.6368 26.194L13.6363 26.1931L13.4802 26.2832ZM13.532 26.374L13.3754 26.4632L13.4273 26.5542H13.532V26.374ZM26.4695 26.374V26.5542H26.5742L26.626 26.4632L26.4695 26.374ZM26.5212 26.2832L26.3652 26.1931L26.3647 26.194L26.5212 26.2832ZM28.9851 22.0146L29.1412 22.1047L29.1412 22.1046L28.9851 22.0146ZM29.0369 21.9248L29.193 22.0147L29.2448 21.9248L29.193 21.8349L29.0369 21.9248ZM28.9851 21.835L29.1412 21.745L29.1412 21.7449L28.9851 21.835ZM22.6218 10.8115L22.4653 10.9007L22.4658 10.9016L22.6218 10.8115ZM22.5701 10.7207L22.7266 10.6315L22.6748 10.5405H22.5701V10.7207ZM35.1355 28.7383V28.5581H4.86401V28.7383V28.9185H35.1355V28.7383ZM4.86401 28.7383L5.02005 28.8284L20.1558 2.61255L19.9998 2.52246L19.8437 2.43237L4.70797 28.6482L4.86401 28.7383ZM19.9998 2.52246L19.8437 2.61255L34.9795 28.8284L35.1355 28.7383L35.2915 28.6482L20.1558 2.43237L19.9998 2.52246ZM17.4314 10.7207L17.2749 10.6315L17.2231 10.7223L17.3796 10.8115L17.5362 10.9007L17.5879 10.8099L17.4314 10.7207ZM17.3796 10.8115L17.2236 10.7214L10.8593 21.7449L11.0154 21.835L11.1714 21.925L17.5357 10.9016L17.3796 10.8115ZM11.0154 21.835L10.8593 21.745L10.8075 21.8349L10.9636 21.9248L11.1197 22.0147L11.1715 21.9249L11.0154 21.835ZM10.9636 21.9248L10.8075 22.0147L10.8593 22.1046L11.0154 22.0146L11.1715 21.9247L11.1197 21.8349L10.9636 21.9248ZM11.0154 22.0146L10.8593 22.1047L13.3242 26.3733L13.4802 26.2832L13.6363 26.1931L11.1714 21.9245L11.0154 22.0146ZM13.4802 26.2832L13.3237 26.3724L13.3754 26.4632L13.532 26.374L13.6885 26.2848L13.6368 26.194L13.4802 26.2832ZM13.532 26.374V26.5542H26.4695V26.374V26.1938H13.532V26.374ZM26.4695 26.374L26.626 26.4632L26.6778 26.3724L26.5212 26.2832L26.3647 26.194L26.3129 26.2848L26.4695 26.374ZM26.5212 26.2832L26.6773 26.3733L29.1412 22.1047L28.9851 22.0146L28.8291 21.9246L26.3652 26.1931L26.5212 26.2832ZM28.9851 22.0146L29.1412 22.1046L29.193 22.0147L29.0369 21.9248L28.8807 21.8349L28.829 21.9247L28.9851 22.0146ZM29.0369 21.9248L29.193 21.8349L29.1412 21.745L28.9851 21.835L28.829 21.9249L28.8807 22.0147L29.0369 21.9248ZM28.9851 21.835L29.1412 21.7449L22.7779 10.7214L22.6218 10.8115L22.4658 10.9016L28.8291 21.925L28.9851 21.835ZM22.6218 10.8115L22.7784 10.7223L22.7266 10.6315L22.5701 10.7207L22.4135 10.8099L22.4653 10.9007L22.6218 10.8115ZM22.5701 10.7207V10.5405H17.4314V10.7207V10.9009H22.5701V10.7207Z" fill="black" mask="url(#path-1-outside-1_51_105)"/>
<mask id="path-3-inside-2_51_105" fill="white">
<path d="M20 0C31.0457 0 40 8.9543 40 20C40 31.0457 31.0457 40 20 40C8.9543 40 0 31.0457 0 20C0 8.9543 8.9543 0 20 0ZM20.2705 2.25195C10.4687 2.25195 2.52246 10.1982 2.52246 20C2.52249 29.8018 10.4687 37.748 20.2705 37.748C30.0722 37.7479 38.0175 29.8017 38.0176 20C38.0176 10.1983 30.0722 2.25208 20.2705 2.25195Z"/>
</mask>
<path d="M20 0C31.0457 0 40 8.9543 40 20C40 31.0457 31.0457 40 20 40C8.9543 40 0 31.0457 0 20C0 8.9543 8.9543 0 20 0ZM20.2705 2.25195C10.4687 2.25195 2.52246 10.1982 2.52246 20C2.52249 29.8018 10.4687 37.748 20.2705 37.748C30.0722 37.7479 38.0175 29.8017 38.0176 20C38.0176 10.1983 30.0722 2.25208 20.2705 2.25195Z" fill="#25FF8B"/>
<path d="M20.2705 2.25195L20.2705 2.07177H20.2705V2.25195ZM2.52246 20H2.34228H2.52246ZM20.2705 37.748V37.9282H20.2705L20.2705 37.748ZM38.0176 20H38.1978H38.0176ZM20 0V0.18018C30.9462 0.18018 39.8198 9.05382 39.8198 20H40H40.1802C40.1802 8.85479 31.1452 -0.18018 20 -0.18018V0ZM40 20H39.8198C39.8198 30.9462 30.9462 39.8198 20 39.8198V40V40.1802C31.1452 40.1802 40.1802 31.1452 40.1802 20H40ZM20 40V39.8198C9.05382 39.8198 0.18018 30.9462 0.18018 20H0H-0.18018C-0.18018 31.1452 8.85479 40.1802 20 40.1802V40ZM0 20H0.18018C0.18018 9.05382 9.05382 0.18018 20 0.18018V0V-0.18018C8.85479 -0.18018 -0.18018 8.85479 -0.18018 20H0ZM20.2705 2.25195V2.07177C10.3692 2.07177 2.34228 10.0987 2.34228 20H2.52246H2.70264C2.70264 10.2977 10.5682 2.43213 20.2705 2.43213V2.25195ZM2.52246 20H2.34228C2.34231 29.9013 10.3692 37.9282 20.2705 37.9282V37.748V37.5679C10.5682 37.5679 2.70267 29.7023 2.70264 20H2.52246ZM20.2705 37.748L20.2705 37.9282C30.1717 37.9281 38.1977 29.9012 38.1978 20H38.0176H37.8374C37.8374 29.7022 29.9727 37.5677 20.2705 37.5679L20.2705 37.748ZM38.0176 20H38.1978C38.1978 10.0988 30.1717 2.0719 20.2705 2.07177L20.2705 2.25195L20.2705 2.43213C29.9727 2.43226 37.8374 10.2978 37.8374 20H38.0176Z" fill="black" mask="url(#path-3-inside-2_51_105)"/>
<line x1="4.84063" y1="28.7906" x2="12.3181" y2="24.0159" stroke="black" stroke-width="0.09009"/>
<line x1="34.8853" y1="28.5129" x2="27.6496" y2="24.2111" stroke="black" stroke-width="0.0891521"/>
<line x1="20.0443" y1="2.61255" x2="20.0443" y2="10.9008" stroke="black" stroke-width="0.0886562"/>
</svg>
