<svg width="44" height="44" viewBox="0 0 44 44" fill="none" xmlns="http://www.w3.org/2000/svg">
<mask id="path-1-outside-1_51_105" maskUnits="userSpaceOnUse" x="8.35557" y="3.01198" width="32.9382" height="34.029" fill="black">
<rect fill="white" x="8.35557" y="3.01198" width="32.9382" height="34.029"/>
<path d="M21.8923 35.849L9.7459 14.8974L33.9629 14.854L21.8923 35.849ZM27.2616 16.3617L27.1758 16.3618L16.993 16.3795L16.9073 16.3796L16.8646 16.454L14.899 19.8726L14.8564 19.947L20.0501 28.9058L20.1359 28.9057L24.0788 28.8978L24.1645 28.8978L24.2072 28.8234L29.2829 19.9963L29.3256 19.922L27.2616 16.3617Z"/>
</mask>
<path d="M21.8923 35.849L9.7459 14.8974L33.9629 14.854L21.8923 35.849ZM27.2616 16.3617L27.1758 16.3618L16.993 16.3795L16.9073 16.3796L16.8646 16.454L14.899 19.8726L14.8564 19.947L20.0501 28.9058L20.1359 28.9057L24.0788 28.8978L24.1645 28.8978L24.2072 28.8234L29.2829 19.9963L29.3256 19.922L27.2616 16.3617Z" fill="#25FF8B"/>
<path d="M21.8923 35.849L21.7637 35.9235L21.8928 36.1463L22.0211 35.9231L21.8923 35.849ZM9.7459 14.8974L9.74563 14.7488L9.48817 14.7493L9.6173 14.972L9.7459 14.8974ZM33.9629 14.854L34.0918 14.9281L34.2201 14.7049L33.9626 14.7054L33.9629 14.854ZM27.2616 16.3617L27.3902 16.2872L27.3472 16.213L27.2615 16.2131L27.2616 16.3617ZM27.1758 16.3618L27.1757 16.2131L27.1756 16.2131L27.1758 16.3618ZM16.993 16.3795L16.9931 16.5282L16.9933 16.5282L16.993 16.3795ZM16.9073 16.3796L16.9072 16.2309L16.8211 16.231L16.7783 16.3057L16.9073 16.3796ZM16.8646 16.454L16.9935 16.5281L16.9936 16.5279L16.8646 16.454ZM14.899 19.8726L14.7702 19.7985L14.7701 19.7986L14.899 19.8726ZM14.8564 19.947L14.7274 19.873L14.6848 19.9474L14.7278 20.0215L14.8564 19.947ZM20.0501 28.9058L19.9215 28.9803L19.9645 29.0545L20.0502 29.0544L20.0501 28.9058ZM20.1359 28.9057L20.136 29.0544L20.1362 29.0544L20.1359 28.9057ZM24.0788 28.8978L24.0787 28.7492L24.0785 28.7492L24.0788 28.8978ZM24.1645 28.8978L24.1646 29.0464L24.2507 29.0464L24.2935 28.9717L24.1645 28.8978ZM24.2072 28.8234L24.0783 28.7493L24.0782 28.7495L24.2072 28.8234ZM29.2829 19.9963L29.4118 20.0704L29.4119 20.0703L29.2829 19.9963ZM29.3256 19.922L29.4545 19.9959L29.4972 19.9215L29.4542 19.8474L29.3256 19.922ZM21.8923 35.849L22.0209 35.7744L9.8745 14.8229L9.7459 14.8974L9.6173 14.972L21.7637 35.9235L21.8923 35.849ZM9.7459 14.8974L9.74617 15.0461L33.9632 15.0027L33.9629 14.854L33.9626 14.7054L9.74563 14.7488L9.7459 14.8974ZM33.9629 14.854L33.834 14.7799L21.7634 35.7749L21.8923 35.849L22.0211 35.9231L34.0918 14.9281L33.9629 14.854ZM27.2616 16.3617L27.2615 16.2131L27.1757 16.2131L27.1758 16.3618L27.1759 16.5104L27.2617 16.5104L27.2616 16.3617ZM27.1758 16.3618L27.1756 16.2131L16.9928 16.2309L16.993 16.3795L16.9933 16.5282L27.1761 16.5104L27.1758 16.3618ZM16.993 16.3795L16.9929 16.2309L16.9072 16.2309L16.9073 16.3796L16.9074 16.5282L16.9931 16.5282L16.993 16.3795ZM16.9073 16.3796L16.7783 16.3057L16.7357 16.3801L16.8646 16.454L16.9936 16.5279L17.0362 16.4535L16.9073 16.3796ZM16.8646 16.454L16.7357 16.3799L14.7702 19.7985L14.899 19.8726L15.0279 19.9467L16.9935 16.5281L16.8646 16.454ZM14.899 19.8726L14.7701 19.7986L14.7274 19.873L14.8564 19.947L14.9853 20.0209L15.028 19.9465L14.899 19.8726ZM14.8564 19.947L14.7278 20.0215L19.9215 28.9803L20.0501 28.9058L20.1787 28.8312L14.985 19.8724L14.8564 19.947ZM20.0501 28.9058L20.0502 29.0544L20.136 29.0544L20.1359 28.9057L20.1358 28.7571L20.0501 28.7571L20.0501 28.9058ZM20.1359 28.9057L20.1362 29.0544L24.0791 29.0465L24.0788 28.8978L24.0785 28.7492L20.1356 28.7571L20.1359 28.9057ZM24.0788 28.8978L24.0789 29.0465L24.1646 29.0464L24.1645 28.8978L24.1644 28.7491L24.0787 28.7492L24.0788 28.8978ZM24.1645 28.8978L24.2935 28.9717L24.3361 28.8973L24.2072 28.8234L24.0782 28.7495L24.0356 28.8239L24.1645 28.8978ZM24.2072 28.8234L24.336 28.8975L29.4118 20.0704L29.2829 19.9963L29.1541 19.9223L24.0783 28.7493L24.2072 28.8234ZM29.2829 19.9963L29.4119 20.0703L29.4545 19.9959L29.3256 19.922L29.1966 19.848L29.154 19.9224L29.2829 19.9963ZM29.3256 19.922L29.4542 19.8474L27.3902 16.2872L27.2616 16.3617L27.133 16.4363L29.197 19.9965L29.3256 19.922Z" fill="black" mask="url(#path-1-outside-1_51_105)"/>
<mask id="path-3-inside-2_51_105" fill="white">
<path d="M35.7089 13.8421C40.1409 21.4869 37.5364 31.277 29.8916 35.7089C22.2468 40.1409 12.4567 37.5364 8.02476 29.8916C3.59281 22.2468 6.19731 12.4567 13.8421 8.02476C21.4869 3.59281 31.277 6.19731 35.7089 13.8421ZM34.2584 14.9325C30.3255 8.14882 21.6378 5.83745 14.854 9.77022C8.07021 13.703 5.75912 22.3908 9.69176 29.1746C13.6246 35.9585 22.3123 38.2697 29.0962 34.3369C35.88 30.404 38.1913 21.7163 34.2584 14.9325Z"/>
</mask>
<path d="M35.7089 13.8421C40.1409 21.4869 37.5364 31.277 29.8916 35.7089C22.2468 40.1409 12.4567 37.5364 8.02476 29.8916C3.59281 22.2468 6.19731 12.4567 13.8421 8.02476C21.4869 3.59281 31.277 6.19731 35.7089 13.8421ZM34.2584 14.9325C30.3255 8.14882 21.6378 5.83745 14.854 9.77022C8.07021 13.703 5.75912 22.3908 9.69176 29.1746C13.6246 35.9585 22.3123 38.2697 29.0962 34.3369C35.88 30.404 38.1913 21.7163 34.2584 14.9325Z" fill="#25FF8B"/>
<path d="M34.2584 14.9325L34.387 14.8579L34.387 14.8579L34.2584 14.9325ZM14.854 9.77022L14.7794 9.64162L14.7794 9.64162L14.854 9.77022ZM9.69176 29.1746L9.56315 29.2492L9.56316 29.2492L9.69176 29.1746ZM29.0962 34.3369L29.1707 34.4655L29.1707 34.4655L29.0962 34.3369ZM35.7089 13.8421L35.5803 13.9166C39.9711 21.4904 37.3908 31.1895 29.817 35.5803L29.8916 35.7089L29.9662 35.8375C37.6819 31.3644 40.3107 21.4833 35.8375 13.7675L35.7089 13.8421ZM29.8916 35.7089L29.817 35.5803C22.2433 39.9711 12.5441 37.3908 8.15336 29.817L8.02476 29.8916L7.89616 29.9662C12.3693 37.6819 22.2504 40.3107 29.9662 35.8375L29.8916 35.7089ZM8.02476 29.8916L8.15336 29.817C3.76258 22.2433 6.34289 12.5441 13.9166 8.15336L13.8421 8.02476L13.7675 7.89616C6.05173 12.3693 3.42303 22.2504 7.89616 29.9662L8.02476 29.8916ZM13.8421 8.02476L13.9166 8.15336C21.4904 3.76258 31.1895 6.34289 35.5803 13.9166L35.7089 13.8421L35.8375 13.7675C31.3644 6.05173 21.4833 3.42303 13.7675 7.89616L13.8421 8.02476ZM34.2584 14.9325L34.387 14.8579C30.4129 8.00324 21.6342 5.66768 14.7794 9.64162L14.854 9.77022L14.9285 9.89882C21.6413 6.00723 30.2381 8.29439 34.1298 15.007L34.2584 14.9325ZM14.854 9.77022L14.7794 9.64162C7.92463 13.6156 5.58935 22.3943 9.56315 29.2492L9.69176 29.1746L9.82036 29.1001C5.9289 22.3873 8.21579 13.7905 14.9285 9.89882L14.854 9.77022ZM9.69176 29.1746L9.56316 29.2492C13.5372 36.1041 22.3158 38.4395 29.1707 34.4655L29.0962 34.3369L29.0216 34.2083C22.3088 38.1 13.712 35.8129 9.82036 29.1001L9.69176 29.1746ZM29.0962 34.3369L29.1707 34.4655C36.0256 30.4914 38.361 21.7128 34.387 14.8579L34.2584 14.9325L34.1298 15.007C38.0215 21.7199 35.7344 30.3166 29.0216 34.2083L29.0962 34.3369Z" fill="black" mask="url(#path-3-inside-2_51_105)"/>
<line x1="9.70075" y1="14.9013" x2="16.0056" y2="18.1607" stroke="black" stroke-width="0.0743243"/>
<line x1="21.9466" y1="35.5848" x2="22.0207" y2="28.8509" stroke="black" stroke-width="0.0735505"/>
<line x1="33.9192" y1="14.922" x2="28.1828" y2="18.2476" stroke="black" stroke-width="0.0731413"/>
</svg>
